<svg id="visual" viewBox="0 0 960 540" width="960" height="540" xmlns="http://www.w3.org/2000/svg" xmlns:xlink="http://www.w3.org/1999/xlink" version="1.1"><path d="M0 50L51 50L51 66L101 66L101 98L152 98L152 55L202 55L202 50L253 50L253 87L303 87L303 77L354 77L354 55L404 55L404 50L455 50L455 50L505 50L505 98L556 98L556 50L606 50L606 77L657 77L657 77L707 77L707 55L758 55L758 55L808 55L808 104L859 104L859 93L909 93L909 66L960 66L960 60L960 0L960 0L909 0L909 0L859 0L859 0L808 0L808 0L758 0L758 0L707 0L707 0L657 0L657 0L606 0L606 0L556 0L556 0L505 0L505 0L455 0L455 0L404 0L404 0L354 0L354 0L303 0L303 0L253 0L253 0L202 0L202 0L152 0L152 0L101 0L101 0L51 0L51 0L0 0Z" fill="#ff9b00"></path><path d="M0 104L51 104L51 131L101 131L101 141L152 141L152 131L202 131L202 87L253 87L253 147L303 147L303 158L354 158L354 131L404 131L404 93L455 93L455 114L505 114L505 174L556 174L556 131L606 131L606 120L657 120L657 114L707 114L707 120L758 120L758 114L808 114L808 141L859 141L859 174L909 174L909 120L960 120L960 136L960 58L960 64L909 64L909 91L859 91L859 102L808 102L808 53L758 53L758 53L707 53L707 75L657 75L657 75L606 75L606 48L556 48L556 96L505 96L505 48L455 48L455 48L404 48L404 53L354 53L354 75L303 75L303 85L253 85L253 48L202 48L202 53L152 53L152 96L101 96L101 64L51 64L51 48L0 48Z" fill="#ff8300"></path><path d="M0 298L51 298L51 222L101 222L101 276L152 276L152 298L202 298L202 341L253 341L253 293L303 293L303 363L354 363L354 325L404 325L404 320L455 320L455 233L505 233L505 309L556 309L556 276L606 276L606 228L657 228L657 330L707 330L707 217L758 217L758 320L808 320L808 260L859 260L859 352L909 352L909 271L960 271L960 336L960 134L960 118L909 118L909 172L859 172L859 139L808 139L808 112L758 112L758 118L707 118L707 112L657 112L657 118L606 118L606 129L556 129L556 172L505 172L505 112L455 112L455 91L404 91L404 129L354 129L354 156L303 156L303 145L253 145L253 85L202 85L202 129L152 129L152 139L101 139L101 129L51 129L51 102L0 102Z" fill="#fd6800"></path><path d="M0 465L51 465L51 417L101 417L101 438L152 438L152 455L202 455L202 449L253 449L253 417L303 417L303 449L354 449L354 460L404 460L404 428L455 428L455 406L505 406L505 449L556 449L556 476L606 476L606 433L657 433L657 455L707 455L707 422L758 422L758 422L808 422L808 465L859 465L859 460L909 460L909 449L960 449L960 438L960 334L960 269L909 269L909 350L859 350L859 258L808 258L808 318L758 318L758 215L707 215L707 328L657 328L657 226L606 226L606 274L556 274L556 307L505 307L505 231L455 231L455 318L404 318L404 323L354 323L354 361L303 361L303 291L253 291L253 339L202 339L202 296L152 296L152 274L101 274L101 220L51 220L51 296L0 296Z" fill="#fb4804"></path><path d="M0 541L51 541L51 541L101 541L101 541L152 541L152 541L202 541L202 541L253 541L253 541L303 541L303 541L354 541L354 541L404 541L404 541L455 541L455 541L505 541L505 541L556 541L556 541L606 541L606 541L657 541L657 541L707 541L707 541L758 541L758 541L808 541L808 541L859 541L859 541L909 541L909 541L960 541L960 541L960 436L960 447L909 447L909 458L859 458L859 463L808 463L808 420L758 420L758 420L707 420L707 453L657 453L657 431L606 431L606 474L556 474L556 447L505 447L505 404L455 404L455 426L404 426L404 458L354 458L354 447L303 447L303 415L253 415L253 447L202 447L202 453L152 453L152 436L101 436L101 415L51 415L51 463L0 463Z" fill="#f70f0f"></path></svg>